<?xml version="1.0" standalone="no"?>
<!DOCTYPE svg PUBLIC "-//W3C//DTD SVG 20010904//EN"
 "http://www.w3.org/TR/2001/REC-SVG-20010904/DTD/svg10.dtd">
<svg version="1.0" xmlns="http://www.w3.org/2000/svg"
 width="512.000000pt" height="512.000000pt" viewBox="0 0 512.000000 512.000000"
 preserveAspectRatio="xMidYMid meet">
<metadata>
Created by potrace 1.11, written by Peter Selinger 2001-2013
</metadata>
<g transform="translate(0.000000,512.000000) scale(0.100000,-0.100000)"
fill="#000000" stroke="none">
<path d="M3423 3998 c-31 -8 -61 -47 -58 -73 7 -61 42 -78 133 -65 74 10 102
32 102 79 0 45 -38 73 -96 70 -27 -1 -64 -6 -81 -11z"/>
<path d="M3030 3935 c-30 -8 -70 -16 -88 -20 -119 -19 -576 -149 -762 -215
-858 -305 -1475 -703 -1662 -1074 -106 -210 -45 -417 158 -536 123 -72 288
-116 521 -140 83 -8 514 -6 578 4 17 2 59 7 95 11 64 6 312 41 360 50 14 3 48
9 76 15 28 6 64 13 80 16 73 13 100 25 115 51 20 35 12 70 -23 96 l-27 20
-108 -22 c-59 -12 -121 -24 -138 -27 -16 -2 -41 -7 -55 -9 -14 -3 -42 -8 -64
-11 -21 -3 -46 -7 -55 -9 -9 -1 -47 -6 -86 -10 -38 -4 -77 -9 -86 -10 -64 -12
-227 -20 -404 -20 -183 0 -263 4 -365 19 -224 33 -407 121 -454 220 -83 175
111 441 517 710 62 41 130 84 152 96 158 89 203 112 305 162 245 119 517 226
825 323 164 51 489 137 569 149 21 4 41 8 45 10 3 3 27 7 51 11 25 4 55 16 68
28 29 27 30 79 0 107 -25 23 -59 24 -138 5z"/>
<path d="M3480 3659 c-13 -6 -32 -18 -41 -28 -40 -43 -40 -40 -54 -421 -8
-216 -17 -415 -18 -416 -1 0 -158 -77 -348 -172 -254 -126 -351 -178 -364
-198 -39 -60 -25 -154 28 -189 18 -12 241 -96 679 -256 l56 -21 8 -61 c4 -34
8 -64 9 -67 1 -3 5 -32 9 -65 5 -33 10 -67 11 -75 2 -14 11 -70 20 -130 3 -14
15 -100 29 -191 14 -91 30 -177 36 -191 15 -33 78 -68 122 -68 18 0 47 8 65
18 18 10 102 107 199 232 93 118 173 220 179 226 5 7 35 44 65 83 l55 72 45
-5 c25 -3 56 -8 70 -11 42 -9 75 -14 111 -19 19 -3 75 -12 124 -21 50 -9 101
-18 115 -20 14 -2 84 -14 157 -26 76 -12 147 -19 166 -15 84 16 130 116 89
193 -11 21 -109 172 -219 335 l-200 297 57 108 c317 604 303 576 297 631 -4
37 -12 53 -40 79 -61 55 -65 55 -472 -61 l-370 -105 -270 274 c-148 151 -283
279 -298 285 -34 12 -74 12 -107 -1z"/>
<path d="M1140 3521 c-93 -47 -106 -63 -101 -118 2 -21 44 -53 68 -53 41 0
180 71 192 97 16 34 14 58 -6 81 -31 36 -71 34 -153 -7z"/>
<path d="M789 3326 c-47 -24 -115 -70 -208 -139 -119 -87 -145 -111 -259 -225
-244 -248 -350 -498 -313 -741 67 -429 590 -719 1406 -778 176 -12 619 -6 711
11 11 2 55 7 99 12 44 4 82 8 85 9 3 0 32 4 65 9 33 4 96 14 140 21 44 8 96
16 115 20 65 11 224 46 325 71 55 14 107 27 115 29 8 2 45 13 82 25 55 17 71
26 84 51 20 40 5 82 -36 99 -23 9 -40 8 -96 -9 -94 -27 -340 -88 -388 -95 -21
-4 -41 -8 -45 -11 -4 -2 -30 -7 -57 -10 -27 -4 -57 -9 -66 -11 -35 -10 -239
-40 -333 -49 -33 -4 -71 -8 -85 -10 -135 -23 -712 -23 -851 0 -33 5 -168 26
-199 30 -223 32 -499 132 -661 241 -208 140 -305 349 -255 553 56 232 275 487
617 716 53 36 100 72 103 81 12 31 6 61 -16 81 -32 28 -52 33 -79 19z"/>
</g>
</svg>
